<svg xmlns="http://www.w3.org/2000/svg" xmlns:xlink="http://www.w3.org/1999/xlink" width="880" height="768" viewBox="0 0 880 768"><defs><style>.a{fill:url(#a);}.b{clip-path:url(#b);}.c{opacity:0.201;}.d,.g{opacity:0.7;}.d{fill:url(#c);}.e,.h,.k{fill:none;}.e,.f{stroke:#685a7f;}.e,.f,.h,.i{stroke-width:2px;}.f,.i{fill:#fff;}.g{fill:url(#e);}.h,.i{stroke:#84c6e8;}.j{stroke:none;}</style><linearGradient id="a" y1="1" x2="1" gradientUnits="objectBoundingBox"><stop offset="0" stop-color="#5c6ccd"/><stop offset="1" stop-color="#5753b5"/></linearGradient><clipPath id="b"><rect class="a" width="880" height="768" transform="translate(-138)"/></clipPath><linearGradient id="c" x1="0.5" x2="0.5" y2="1" gradientUnits="objectBoundingBox"><stop offset="0" stop-color="#685a7f"/><stop offset="1" stop-color="#fff" stop-opacity="0"/></linearGradient><linearGradient id="e" x1="0.5" x2="0.5" y2="1" gradientUnits="objectBoundingBox"><stop offset="0" stop-color="#84c6e8"/><stop offset="1" stop-color="#fff" stop-opacity="0"/></linearGradient></defs><g class="b" transform="translate(138)"><g class="c" transform="translate(-438.602 227.307)"><path class="d" d="M330,672.157V497.62S576.8,612.1,774,619.291c213.231-6.968,250.155-55.962,416.246-121.671,141.933-54.769,283.477-69.8,419.334-65.931s253.61,63.035,414.089,69.1c283.1-24.427,427.544-147.929,446.671-199.51V737.069L330,737.262Z" transform="translate(-330 -299.241)"/><path class="e" d="M313,444.076s245.21,117.21,439.09,119.734,268.35-60.485,416.85-119.578,289.672-69.178,419.643-67.191,256.32,63.911,416.016,67.2,418.049-107.042,446.778-199" transform="translate(-311.036 -245.24)"/><g class="f" transform="translate(848.496 189.999)"><circle class="j" cx="9.807" cy="9.807" r="9.807"/><circle class="k" cx="9.807" cy="9.807" r="8.807"/></g><g class="f" transform="translate(564.904 298.58)"><circle class="j" cx="9.807" cy="9.807" r="9.807"/><circle class="k" cx="9.807" cy="9.807" r="8.807"/></g></g><g class="c" transform="translate(-540.202 413.707)"><path class="d" d="M330,672.157V497.62S576.8,612.1,774,619.291c213.231-6.968,250.155-55.962,416.246-121.671,141.933-54.769,283.477-69.8,419.334-65.931s253.61,63.035,414.089,69.1c283.1-24.427,427.544-147.929,446.671-199.51V737.069L330,737.262Z" transform="translate(-330 -299.241)"/><path class="e" d="M313,444.076s245.21,117.21,439.09,119.734,268.35-60.485,416.85-119.578,289.672-69.178,419.643-67.191,256.32,63.911,416.016,67.2,418.049-107.042,446.778-199" transform="translate(-311.036 -245.24)"/><g class="f" transform="translate(848.496 189.999)"><circle class="j" cx="9.807" cy="9.807" r="9.807"/><circle class="k" cx="9.807" cy="9.807" r="8.807"/></g></g><g class="c" transform="translate(-563.439 245.148)"><path class="g" d="M330,620.945V354.422S570.885,619.4,768.762,629.374c220.781-2.246,222.591-137.562,416.6-211.638,162.419-58.165,286.353,100.5,422.21,104.367s229.618-108.74,414.968-116.564c240.143,11.782,432.841,162.234,447.794,170.323V685.857L330,686.051Z" transform="translate(-328.673 -354.422)"/><path class="h" d="M312.953,279.164s248.382,269.863,442.5,272.387,260.5-159,416.367-213.459S1462.9,441.964,1593.032,443.951,1847.757,325,2007.649,328.289s342.7,94.768,443.765,166.931" transform="translate(-312.953 -276.906)"/><g class="i" transform="translate(1680.241 41.208)"><circle class="j" cx="9.807" cy="9.807" r="9.807"/><circle class="k" cx="9.807" cy="9.807" r="8.807"/></g><g class="i" transform="translate(912.912 40.547)"><circle class="j" cx="9.807" cy="9.807" r="9.807"/><circle class="k" cx="9.807" cy="9.807" r="8.807"/></g></g><g class="c" transform="translate(-805.619 333.418)"><path class="g" d="M330,620.945V354.422S570.885,619.4,768.762,629.374c220.781-2.246,222.591-137.562,416.6-211.638,162.419-58.165,286.353,100.5,422.21,104.367s229.618-108.74,414.968-116.564c240.143,11.782,432.841,162.234,447.794,170.323V685.857L330,686.051Z" transform="translate(-329.473 -354.422)"/><path class="h" d="M312.953,279.164s248.382,269.863,442.5,272.387,260.5-159,416.367-213.459S1462.9,441.964,1593.032,443.951,1847.757,325,2007.649,328.289s342.7,94.768,443.765,166.931" transform="translate(-312.953 -276.906)"/><g class="i" transform="translate(1349.608 145.861)"><circle class="j" cx="9.807" cy="9.807" r="9.807"/><circle class="k" cx="9.807" cy="9.807" r="8.807"/></g><g class="i" transform="translate(847.043 51.026)"><circle class="j" cx="9.807" cy="9.807" r="9.807"/><circle class="k" cx="9.807" cy="9.807" r="8.807"/></g></g></g></svg>