<svg width="268" height="235" viewBox="0 0 268 235" fill="none" xmlns="http://www.w3.org/2000/svg">
<g clip-path="url(#clip0_3350_6879)">
<path d="M166.652 38.6438C163.104 32.7809 158.9 26.521 152.317 24.6066C144.693 22.3896 136.86 26.7938 130.217 31.1398C110.349 44.1372 91.2166 58.2228 72.9061 73.3319L72.9261 73.5595C87.1815 72.5772 101.437 71.5949 115.692 70.6127C125.992 69.9029 136.645 69.0953 145.747 64.2269C149.201 62.3795 152.568 59.9118 156.482 59.7399C161.344 59.5262 165.584 62.9195 168.916 66.4647C188.626 87.4357 194.329 119.505 216.441 137.93C202.498 103.571 185.849 70.3719 166.652 38.6438Z" fill="#F3F4F6"/>
<path d="M302.666 206.186C300.486 203.436 299.596 202.792 297.446 200.017C279.94 177.394 263.487 154.007 248.085 129.856C237.623 113.454 227.68 96.7367 218.256 79.7043C213.769 71.607 209.406 63.446 205.165 55.2216C201.874 48.8445 198.657 42.4293 195.513 35.976C194.614 34.1328 193.741 32.2811 192.872 30.4252C190.823 26.0609 188.813 21.6753 186.655 17.3703C184.195 12.4636 181.201 7.31953 176.685 4.02296C174.629 2.46114 172.172 1.51614 169.599 1.29843C165.922 1.06115 162.53 2.57808 159.341 4.23483C136.009 16.3915 114.165 31.6329 94.408 48.9759C74.6002 66.3579 56.8953 85.9953 41.6542 107.488C41.1879 108.153 40.0853 107.518 40.5559 106.848C42.4091 104.23 44.2991 101.639 46.2257 99.077C70.1823 67.2409 99.5567 39.8636 133.006 18.1965C138.634 14.5525 144.367 11.0794 150.206 7.77714C153.149 6.1119 156.105 4.46786 159.112 2.92552C162.059 1.41282 165.188 0.0526557 168.556 0.00181236C180.014 -0.176139 185.947 12.7898 190.022 21.5143C191.302 24.26 192.599 26.9973 193.91 29.7261C198.868 40.0861 204.016 50.3515 209.355 60.5223C212.65 66.802 216.017 73.0448 219.456 79.251C230.159 98.577 241.536 117.512 253.585 136.055C269.547 160.619 285.381 182.318 303.565 205.288C304.065 205.923 303.171 206.83 302.666 206.186Z" fill="#E4E4E4"/>
<path d="M63.0286 47.3607L61.3585 48.7171C61.9234 48.2424 62.5107 47.7973 63.114 47.3761C63.0855 47.3712 63.0571 47.3656 63.0286 47.3607Z" fill="#F2F2F2"/>
<path d="M209.852 86.5523C208.779 84.4955 207.607 82.3316 205.6 81.1664L203.57 80.823C213.197 111.108 228.918 139.106 249.768 163.097C236.463 137.582 223.157 112.067 209.852 86.5523Z" fill="#F3F4F6"/>
<path d="M160.123 98.9353C161.209 102.878 163.656 106.309 167.03 108.623C168.334 109.51 169.878 110.361 170.324 111.874C170.559 112.838 170.414 113.856 169.92 114.717C169.427 115.566 168.826 116.35 168.134 117.047L168.071 117.283C164.833 115.367 161.753 112.942 159.965 109.633C158.177 106.325 157.927 101.989 160.123 98.9353" fill="#F2F2F2"/>
<path d="M224.906 165.014C225.992 168.956 228.439 172.388 231.813 174.701C233.118 175.589 234.661 176.44 235.108 177.953C235.342 178.917 235.198 179.934 234.704 180.795C234.21 181.645 233.61 182.428 232.917 183.125L232.854 183.362C229.617 181.445 226.537 179.02 224.749 175.712C222.96 172.403 222.711 168.067 224.906 165.014" fill="#F2F2F2"/>
<path d="M310.427 230.535L0.430317 230.693C0.373807 230.693 0.317848 230.678 0.26564 230.647C0.213431 230.616 0.165996 230.571 0.126037 230.514C0.0860779 230.457 0.054377 230.389 0.0327514 230.314C0.0111258 230.24 0 230.16 0 230.079C0 229.999 0.0111258 229.919 0.0327514 229.844C0.054377 229.77 0.0860779 229.702 0.126037 229.645C0.165996 229.588 0.213431 229.543 0.26564 229.512C0.317848 229.481 0.373807 229.465 0.430317 229.465L310.427 229.307C310.541 229.307 310.65 229.372 310.73 229.487C310.811 229.602 310.856 229.758 310.856 229.921C310.856 230.083 310.811 230.239 310.73 230.354C310.65 230.47 310.541 230.535 310.427 230.535Z" fill="#CACACA"/>
<path d="M166.335 205.77C186.517 205.77 202.879 189.422 202.879 169.255C202.879 149.089 186.517 132.741 166.335 132.741C146.152 132.741 129.791 149.089 129.791 169.255C129.791 189.422 146.152 205.77 166.335 205.77Z" fill="#9CA3AF"/>
<path d="M169.454 198.277L158.842 201.536L164.685 220.534L175.297 217.275L169.454 198.277Z" fill="#2F2E41"/>
<path d="M190.678 191.762L180.066 195.021L185.909 214.019L196.521 210.76L190.678 191.762Z" fill="#2F2E41"/>
<path d="M195.704 214.394C200.588 212.894 204.091 210.194 203.528 208.364C202.965 206.534 198.55 206.267 193.666 207.766C188.782 209.266 185.279 211.966 185.841 213.796C186.404 215.626 190.82 215.893 195.704 214.394Z" fill="#2F2E41"/>
<path d="M164.501 172.627C171.399 172.627 176.991 167.04 176.991 160.147C176.991 153.255 171.399 147.668 164.501 147.668C157.603 147.668 152.012 153.255 152.012 160.147C152.012 167.04 157.603 172.627 164.501 172.627Z" fill="white"/>
<path d="M164.501 164.307C166.801 164.307 168.665 162.444 168.665 160.147C168.665 157.849 166.801 155.987 164.501 155.987C162.202 155.987 160.338 157.849 160.338 160.147C160.338 162.444 162.202 164.307 164.501 164.307Z" fill="#4B5563"/>
<path d="M122.466 147.201C115.764 135.446 120.857 119.923 133.843 112.531C146.829 105.139 162.79 108.676 169.492 120.432C176.195 132.187 168.386 139.68 155.401 147.072C142.415 154.464 129.169 158.957 122.466 147.201Z" fill="#E5E7EB"/>
<path d="M223.282 195.105C223.282 220.562 208.137 229.45 189.453 229.45C189.021 229.45 188.588 229.445 188.157 229.436C187.291 229.417 186.434 229.376 185.587 229.318C168.725 228.126 155.625 218.78 155.625 195.105C155.625 170.604 186.959 139.687 189.313 137.399L189.317 137.395C189.408 137.307 189.453 137.263 189.453 137.263C189.453 137.263 223.282 169.648 223.282 195.105Z" fill="#F3F4F6"/>
<path d="M188.221 225.556L200.594 208.282L188.19 227.453L188.157 229.436C187.291 229.418 186.434 229.376 185.587 229.319L186.92 203.85L186.91 203.652L186.933 203.615L187.058 201.21L174.624 181.991L187.098 199.405L187.127 199.916L188.134 180.673L177.489 160.814L188.264 177.295L189.313 137.4L189.317 137.264V137.396L189.142 168.856L199.74 156.384L189.099 171.566L188.819 188.795L198.714 172.26L188.777 191.33L188.621 200.909L202.987 177.895L188.567 204.251L188.221 225.556Z" fill="#6B7280"/>
<path d="M168.656 191.114C170.013 188.253 163.723 182.432 154.605 178.111C145.487 173.79 136.995 172.606 135.637 175.466C134.28 178.326 140.571 184.147 149.688 188.468C158.806 192.789 167.298 193.974 168.656 191.114Z" fill="#9CA3AF"/>
<path d="M25.9549 84.359C35.9558 84.359 44.063 76.4006 44.063 66.5833C44.063 56.7661 35.9558 48.8077 25.9549 48.8077C15.9541 48.8077 7.84683 56.7661 7.84683 66.5833C7.84683 76.4006 15.9541 84.359 25.9549 84.359Z" fill="#9CA3AF"/>
<path d="M113.477 134.145C113.477 176.742 88.2098 191.615 57.0405 191.615C25.8713 191.615 0.603607 176.742 0.603607 134.145C0.603607 91.5487 57.0405 37.359 57.0405 37.359C57.0405 37.359 113.477 91.5487 113.477 134.145Z" fill="#F3F4F6"/>
<path d="M54.8509 184.881L55.4335 149.284L79.6757 105.245L55.5249 143.7L55.7867 127.694L72.4944 95.8327L55.8559 123.458L56.3268 94.6712L74.2179 69.3056L56.4011 90.1444L56.6952 37.359L54.8458 107.237L54.9978 104.355L36.808 76.7078L54.7062 109.888L53.0114 142.039L52.9609 141.185L31.991 112.091L52.8974 144.2L52.6855 148.221L52.6475 148.281L52.6648 148.611L48.3649 230.179H54.11L54.7993 188.048L75.654 156.018L54.8509 184.881Z" fill="#6B7280"/>
</g>
<defs>
<clipPath id="clip0_3350_6879">
<rect width="268" height="235" fill="white"/>
</clipPath>
</defs>
</svg>
