<svg width="159" height="96" viewBox="0 0 159 96" fill="none" xmlns="http://www.w3.org/2000/svg">
<path d="M121.734 94.9144C119.699 93.1773 118.462 90.4332 118.786 87.7618C119.111 85.0904 121.119 82.6345 123.724 82.0672C126.329 81.4999 129.299 83.0703 130.09 85.6403C130.526 80.6854 131.028 75.5228 133.636 71.3033C135.998 67.4825 140.089 64.7486 144.523 64.2596C148.957 63.7705 153.625 65.6177 156.39 69.1518C159.155 72.6859 159.832 77.8237 157.895 81.8812C156.469 84.8701 153.84 87.0946 151.087 88.9042C142.188 94.7027 131.515 97.0607 121.031 95.5444L121.734 94.9144Z" fill="#E5E7EB"/>
<path d="M152.005 65.7201C148.347 68.7294 144.991 72.095 141.985 75.7683C137.282 81.4973 133.476 87.9206 130.7 94.8144C130.496 95.3173 131.305 95.5363 131.506 95.0389C136.048 83.8351 143.3 73.9602 152.597 66.3173C153.014 65.9739 152.419 65.3796 152.005 65.7201Z" fill="white"/>
<path d="M51.1847 94.4424C53.9806 92.0565 55.6789 88.2874 55.2335 84.6183C54.7882 80.9491 52.0296 77.576 48.4514 76.7968C44.8732 76.0176 40.7943 78.1745 39.7075 81.7044C39.1093 74.8988 38.4201 67.8081 34.8373 62.0125C31.5931 56.7647 25.9741 53.0097 19.8844 52.338C13.7946 51.6662 7.38294 54.2034 3.58501 59.0575C-0.212931 63.9116 -1.14284 70.9684 1.51714 76.5412C3.47665 80.6466 7.08676 83.7019 10.8693 86.1875C22.9367 94.1174 37.9064 97.4247 52.1503 95.3077" fill="#E5E7EB"/>
<path d="M9.607 54.3441C14.6318 58.4773 19.2415 63.1 23.3694 68.1453C27.498 73.1854 31.1328 78.618 34.2227 84.3669C35.9499 87.5918 37.5014 90.9095 38.8704 94.3051C39.1495 94.9959 38.0388 95.2966 37.7628 94.6135C35.338 88.6269 32.338 82.8948 28.806 77.4992C25.2911 72.1232 21.2681 67.1042 16.7935 62.5127C14.2626 59.9171 11.5924 57.4639 8.79481 55.1643C8.22139 54.6927 9.03831 53.8764 9.60699 54.3441L9.607 54.3441Z" fill="white"/>
<path d="M114.133 95.7899H47.4258V26.6698C47.4258 11.964 59.2727 0 73.8344 0H87.7242C102.286 0 114.133 11.964 114.133 26.6698V95.7899Z" fill="#9CA3AF"/>
<path d="M100.317 95.7891H47.5001V26.6691C47.4855 21.0342 49.2524 15.5417 52.5434 10.9912C52.6648 10.8243 52.7858 10.6594 52.9106 10.4964C54.5024 8.38792 56.3968 6.53102 58.5312 4.98699C58.6517 4.89839 58.7728 4.81134 58.8956 4.72429C60.6816 3.47614 62.6135 2.45581 64.6474 1.68651C64.7682 1.64028 64.8912 1.59396 65.0141 1.54952C66.8536 0.886576 68.7605 0.432461 70.6995 0.195561C70.8197 0.178978 70.9431 0.166001 71.0665 0.153024C72.956 -0.0510081 74.8617 -0.0510081 76.7513 0.153024C76.8744 0.166001 76.9978 0.178976 77.1194 0.195738C79.0579 0.432654 80.9642 0.886714 82.8033 1.54953C82.9263 1.59396 83.0493 1.64028 83.1704 1.68661C85.1792 2.4462 87.0884 3.45131 88.8554 4.6795C88.9781 4.76466 89.101 4.85172 89.222 4.93877C90.4184 5.80121 91.5421 6.762 92.5818 7.81136C93.4155 8.65306 94.1924 9.55027 94.9073 10.4969C95.0317 10.6594 95.1527 10.8243 95.2738 10.991C98.565 15.5414 100.332 21.0341 100.317 26.6691V95.7891Z" fill="#E5E7EB"/>
<path d="M95.9482 64.875C97.5632 64.875 98.8724 63.5529 98.8724 61.9219C98.8724 60.291 97.5632 58.9689 95.9482 58.9689C94.3333 58.9689 93.0241 60.291 93.0241 61.9219C93.0241 63.5529 94.3333 64.875 95.9482 64.875Z" fill="#6B7280"/>
<path d="M108.668 93.7196H106.427L105.361 84.9918L108.668 84.992L108.668 93.7196Z" fill="#FFF5F5"/>
<path d="M104.827 93.073H109.148V95.8206H102.106C102.106 95.4598 102.177 95.1025 102.313 94.7691C102.45 94.4358 102.651 94.1329 102.903 93.8778C103.156 93.6226 103.456 93.4202 103.786 93.2821C104.116 93.1441 104.47 93.073 104.827 93.073Z" fill="#374151"/>
<path d="M119.816 93.7196H117.576L116.51 84.9918L119.817 84.992L119.816 93.7196Z" fill="#FFF5F5"/>
<path d="M115.975 93.073H120.296V95.8206H113.255C113.255 95.4598 113.325 95.1025 113.462 94.7691C113.598 94.4358 113.799 94.1329 114.051 93.8778C114.304 93.6226 114.604 93.4202 114.934 93.2821C115.264 93.1441 115.618 93.073 115.975 93.073Z" fill="#374151"/>
<path d="M97.4282 62.5069C97.267 62.2671 97.1598 61.9945 97.1143 61.7083C97.0687 61.4221 97.0858 61.1293 97.1644 60.8505C97.243 60.5717 97.3811 60.3137 97.5691 60.0947C97.7572 59.8757 97.9904 59.701 98.2525 59.5828L105.869 38.3823L109.617 40.4479L100.92 60.7078C101.088 61.1657 101.083 61.6696 100.907 62.1241C100.731 62.5786 100.396 62.9521 99.9656 63.1739C99.5351 63.3956 99.0391 63.4502 98.5714 63.3273C98.1038 63.2044 97.697 62.9125 97.4282 62.5069Z" fill="#FFF5F5"/>
<path d="M118.672 66.4906C118.423 66.3464 118.208 66.1489 118.043 65.9119C117.878 65.6748 117.766 65.4041 117.716 65.1188C117.665 64.8334 117.677 64.5403 117.751 64.2602C117.825 63.9801 117.959 63.7198 118.143 63.4976L115.784 41.071L120.049 41.2678L121.029 63.3273C121.379 63.6647 121.593 64.1197 121.632 64.6061C121.671 65.0925 121.532 65.5765 121.242 65.9664C120.951 66.3564 120.529 66.6251 120.055 66.7217C119.582 66.8183 119.089 66.7361 118.672 66.4906Z" fill="#FFF5F5"/>
<path d="M111.868 34.4554C114.347 34.4554 116.356 32.4259 116.356 29.9223C116.356 27.4187 114.347 25.3892 111.868 25.3892C109.389 25.3892 107.379 27.4187 107.379 29.9223C107.379 32.4259 109.389 34.4554 111.868 34.4554Z" fill="#FFF5F5"/>
<path d="M118.643 61.3902H105.11L105.127 61.2838C105.151 61.1249 107.539 45.3301 105.778 40.1628C105.601 39.655 105.617 39.0992 105.821 38.6022C106.026 38.1053 106.406 37.7025 106.887 37.4712H106.887C109.404 36.2742 114.235 34.8003 118.313 38.3773C118.913 38.9123 119.382 39.581 119.682 40.3304C119.982 41.0799 120.105 41.8895 120.042 42.6954L118.643 61.3902Z" fill="#6B7280"/>
<path d="M107.71 47.6644L101.617 46.4161L104.473 39.5817C104.644 38.9197 105.068 38.3532 105.652 38.0065C106.236 37.6597 106.932 37.561 107.588 37.732C108.244 37.903 108.806 38.3298 109.15 38.9186C109.495 39.5075 109.594 40.2104 109.427 40.8732L107.71 47.6644Z" fill="#6B7280"/>
<path d="M115.513 49.982L115.146 41.5027C114.869 39.9088 115.772 38.402 117.162 38.1557C118.552 37.9103 119.909 39.0158 120.188 40.6215L121.565 48.5445L115.513 49.982Z" fill="#6B7280"/>
<path d="M118.193 60.375C120.37 68.75 120.608 79.3981 120.021 91.013L117.096 90.6439L111.796 68.4959L108.872 91.013L105.583 90.8284C104.6 78.6416 103.643 68.1793 105.217 61.2978L118.193 60.375Z" fill="#374151"/>
<path d="M114.825 33.4257C113.988 34.3265 112.433 33.8429 112.324 32.6123C112.315 32.5167 112.316 32.4206 112.325 32.3251C112.382 31.78 112.694 31.2851 112.619 30.7095C112.602 30.5663 112.549 30.4298 112.465 30.3129C111.798 29.4105 110.232 30.7165 109.602 29.8996C109.216 29.3987 109.67 28.61 109.373 28.0502C108.982 27.3112 107.824 27.6757 107.097 27.2711C106.289 26.8208 106.337 25.5684 106.869 24.8066C107.518 23.8776 108.656 23.3819 109.78 23.3104C110.903 23.239 112.019 23.5457 113.068 23.9585C114.26 24.4276 115.441 25.0758 116.175 26.1341C117.067 27.4211 117.153 29.1514 116.706 30.6563C116.435 31.5717 115.509 32.6901 114.825 33.4257Z" fill="#374151"/>
<path d="M153.514 95.9086H18.5843C18.5267 95.9085 18.4715 95.8852 18.4308 95.844C18.3902 95.8028 18.3673 95.747 18.3673 95.6889C18.3673 95.6307 18.3902 95.5749 18.4308 95.5337C18.4715 95.4925 18.5267 95.4693 18.5843 95.4691H153.514C153.571 95.4693 153.627 95.4925 153.667 95.5337C153.708 95.5749 153.731 95.6307 153.731 95.6889C153.731 95.747 153.708 95.8028 153.667 95.844C153.627 95.8852 153.571 95.9085 153.514 95.9086Z" fill="#4B5563"/>
<path d="M85.7138 75.7644H61.9551C61.6422 75.7661 61.3415 75.6424 61.1188 75.4204C60.8961 75.1985 60.7696 74.8964 60.7672 74.5804V21.0249C60.7696 20.7089 60.8961 20.4068 61.1188 20.1848C61.3415 19.9628 61.6422 19.8391 61.9551 19.8408H85.7138C86.0267 19.8391 86.3275 19.9628 86.5502 20.1848C86.7729 20.4068 86.8993 20.7089 86.9017 21.0249V74.5804C86.8993 74.8964 86.7729 75.1985 86.5502 75.4204C86.3275 75.6424 86.0267 75.7661 85.7138 75.7644Z" fill="white"/>
<path d="M86.9017 37.1697H60.7672V37.5388H86.9017V37.1697Z" fill="#6B7280"/>
<path d="M86.9931 58.2307H60.8586V58.5998H86.9931V58.2307Z" fill="#6B7280"/>
<path d="M69.3569 19.8408H68.9914V75.9489H69.3569V19.8408Z" fill="#6B7280"/>
<path d="M78.4948 19.8408H78.1293V75.9489H78.4948V19.8408Z" fill="#6B7280"/>
</svg>
