<svg width="24" height="24" viewBox="0 0 24 24" fill="none" xmlns="http://www.w3.org/2000/svg">
<path fill-rule="evenodd" clip-rule="evenodd" d="M7 2C6.44772 2 6 2.44772 6 3V4H4C2.89543 4 2 4.89543 2 6V19C2 20.1046 2.89543 21 4 21H20C21.1046 21 22 20.1046 22 19V6C22 4.89543 21.1046 4 20 4H18V3C18 2.44772 17.5523 2 17 2C16.4477 2 16 2.44772 16 3V4H8V3C8 2.44772 7.55228 2 7 2ZM4 9C4 8.44771 4.44772 8 5 8H19C19.5523 8 20 8.44772 20 9V18C20 18.5523 19.5523 19 19 19H5C4.44772 19 4 18.5523 4 18V9ZM11.584 10.124C11.7819 9.82718 12.2181 9.82718 12.416 10.124L14.4818 13.2227C14.7033 13.5549 14.4651 14 14.0658 14H13V16C13 16.5523 12.5523 17 12 17C11.4477 17 11 16.5523 11 16V14H9.93427C9.53492 14 9.29672 13.5549 9.51824 13.2227L11.584 10.124Z" fill="#6741D9"/>
</svg>
