<svg width="20" height="20" viewBox="0 0 20 20" fill="none" xmlns="http://www.w3.org/2000/svg">
<path d="M19.6667 10.2222C19.6667 9.39994 19.6009 8.79995 19.4584 8.17773H10.1973V11.8888H15.6334C15.5238 12.811 14.932 14.1999 13.6167 15.1332L13.5983 15.2575L16.5265 17.5572L16.7294 17.5777C18.5926 15.8332 19.6667 13.2666 19.6667 10.2222Z" fill="#4285F4"/>
<path d="M10.1966 20C12.8598 20 15.0956 19.1111 16.7287 17.5778L13.6161 15.1333C12.7831 15.7222 11.6652 16.1333 10.1966 16.1333C7.58814 16.1333 5.37425 14.3889 4.58506 11.9778L4.46938 11.9877L1.42458 14.3766L1.38477 14.4889C3.00682 17.7555 6.33866 20 10.1966 20Z" fill="#34A853"/>
<path d="M4.58567 11.9778C4.37744 11.3555 4.25693 10.6888 4.25693 9.99997C4.25693 9.31104 4.37744 8.6444 4.57472 8.02218L4.5692 7.88967L1.48625 5.4624L1.38538 5.51104C0.716855 6.86661 0.333252 8.38886 0.333252 9.99997C0.333252 11.6111 0.716855 13.1332 1.38538 14.4888L4.58567 11.9778Z" fill="#FBBC05"/>
<path d="M10.1966 3.86664C12.0488 3.86664 13.2982 4.67774 14.0106 5.35557L16.7945 2.6C15.0848 0.988892 12.8598 0 10.1966 0C6.33866 0 3.00682 2.24442 1.38477 5.51106L4.5741 8.0222C5.37425 5.6111 7.58815 3.86664 10.1966 3.86664Z" fill="#EB4335"/>
</svg>
