<svg width="24" height="24" viewBox="0 0 24 24" fill="none" xmlns="http://www.w3.org/2000/svg">
<path fill-rule="evenodd" clip-rule="evenodd" d="M8.57538 8.28923L10.4862 13.3846H6.66462L8.57538 8.28923ZM11.1692 15.2308L12.2215 18H14.1508L9.43385 6H7.71692L3 18H4.92923L5.96308 15.2308H11.1692ZM15 11C14.4477 11 14 11.4477 14 12C14 12.5523 14.4477 13 15 13H19C19.5523 13 20 12.5523 20 12C20 11.4477 19.5523 11 19 11H15ZM16 17C16 16.4477 16.4477 16 17 16H19C19.5523 16 20 16.4477 20 17C20 17.5523 19.5523 18 19 18H17C16.4477 18 16 17.5523 16 17ZM13 6C12.4477 6 12 6.44772 12 7C12 7.55228 12.4477 8 13 8H19C19.5523 8 20 7.55228 20 7C20 6.44772 19.5523 6 19 6H13Z" fill="black"/>
</svg>
