<svg width="24" height="24" viewBox="0 0 24 24" fill="none" xmlns="http://www.w3.org/2000/svg">
<path d="M12.9276 3.5117L21.8613 18.5117C22.2305 19.1316 21.8014 20 20.9338 20H3.06624C2.19863 20 1.76948 19.1316 2.13865 18.5117L11.0724 3.5117C11.4788 2.82943 12.5212 2.82943 12.9276 3.5117Z" stroke="#E03131" stroke-width="2"/>
<path fill-rule="evenodd" clip-rule="evenodd" d="M12 9.5C11.4477 9.5 11 9.94772 11 10.5V12.5C11 13.0523 11.4477 13.5 12 13.5C12.5523 13.5 13 13.0523 13 12.5V10.5C13 9.94772 12.5523 9.5 12 9.5ZM12 15C11.4477 15 11 15.4477 11 16C11 16.5523 11.4477 17 12 17C12.5523 17 13 16.5523 13 16C13 15.4477 12.5523 15 12 15Z" fill="#E03131"/>
</svg>
