<svg width="24" height="24" viewBox="0 0 24 24" fill="none" xmlns="http://www.w3.org/2000/svg">
<path d="M5 5H4C3.44772 5 3 5.44772 3 6C3 6.55228 3.44772 7 4 7H5C5.55228 7 6 6.55228 6 6C6 5.44772 5.55228 5 5 5Z" fill="black"/>
<path d="M5 9H4C3.44772 9 3 9.44772 3 10C3 10.5523 3.44772 11 4 11H5C5.55228 11 6 10.5523 6 10C6 9.44772 5.55228 9 5 9Z" fill="black"/>
<path d="M5 13H4C3.44772 13 3 13.4477 3 14C3 14.5523 3.44772 15 4 15H5C5.55228 15 6 14.5523 6 14C6 13.4477 5.55228 13 5 13Z" fill="black"/>
<path d="M5 17H4C3.44772 17 3 17.4477 3 18C3 18.5523 3.44772 19 4 19H5C5.55228 19 6 18.5523 6 18C6 17.4477 5.55228 17 5 17Z" fill="black"/>
<path d="M20 5H9C8.44772 5 8 5.44772 8 6C8 6.55228 8.44772 7 9 7H20C20.5523 7 21 6.55228 21 6C21 5.44772 20.5523 5 20 5Z" fill="black"/>
<path d="M15 9H9C8.44772 9 8 9.44772 8 10C8 10.5523 8.44772 11 9 11H15C15.5523 11 16 10.5523 16 10C16 9.44772 15.5523 9 15 9Z" fill="black"/>
<path d="M20 13H9C8.44772 13 8 13.4477 8 14C8 14.5523 8.44772 15 9 15H20C20.5523 15 21 14.5523 21 14C21 13.4477 20.5523 13 20 13Z" fill="black"/>
<path d="M15 17H9C8.44772 17 8 17.4477 8 18C8 18.5523 8.44772 19 9 19H15C15.5523 19 16 18.5523 16 18C16 17.4477 15.5523 17 15 17Z" fill="black"/>
</svg>
