<svg width="24" height="24" viewBox="0 0 24 24" fill="none" xmlns="http://www.w3.org/2000/svg">
<path fill-rule="evenodd" clip-rule="evenodd" d="M3 19C3 20.1046 3.89543 21 5 21H18C19.1046 21 20 20.1046 20 19V15H18V18C18 18.5523 17.5523 19 17 19H6C5.44772 19 5 18.5523 5 18V7C5 6.44772 5.44772 6 6 6H9V4H5C3.89543 4 3 4.89543 3 6V19ZM13 7C13 7.55229 13.4477 8 14 8H16V10C16 10.5523 16.4477 11 17 11C17.5523 11 18 10.5523 18 10V8H20C20.5523 8 21 7.55229 21 7C21 6.44772 20.5523 6 20 6H18V4C18 3.44772 17.5523 3 17 3C16.4477 3 16 3.44772 16 4V6H14C13.4477 6 13 6.44772 13 7ZM7 15C7 14.4477 7.44772 14 8 14H15C15.5523 14 16 14.4477 16 15C16 15.5523 15.5523 16 15 16H8C7.44772 16 7 15.5523 7 15ZM8 9C7.44772 9 7 9.44771 7 10C7 10.5523 7.44772 11 8 11H11C11.5523 11 12 10.5523 12 10C12 9.44771 11.5523 9 11 9H8Z" fill="#212529"/>
</svg>
