<svg width="24" height="24" viewBox="0 0 24 24" fill="none" xmlns="http://www.w3.org/2000/svg">
<path fill-rule="evenodd" clip-rule="evenodd" d="M6 3C6 2.44772 6.44772 2 7 2C7.55228 2 8 2.44772 8 3V4H16V3C16 2.44772 16.4477 2 17 2C17.5523 2 18 2.44772 18 3V4H20C21.1046 4 22 4.89543 22 6V10.252C21.3608 10.0875 20.6906 10 20 10V9C20 8.44772 19.5523 8 19 8H5C4.44772 8 4 8.44771 4 9V18C4 18.5523 4.44772 19 5 19H12.0619C12.149 19.6986 12.3262 20.3693 12.5815 21H4C2.89543 21 2 20.1046 2 19V6C2 4.89543 2.89543 4 4 4H6V3ZM22.3723 16.395C22.401 16.5959 22.4286 16.7888 22.4286 17C22.4286 17.2112 22.401 17.4041 22.3724 17.605L22.3686 17.6313L23.2086 18.3627C23.3886 18.523 23.4286 18.7836 23.3086 18.994L22.7186 20.016C22.5986 20.2164 22.3586 20.3166 22.1286 20.2365L21.0686 19.8758C20.7486 20.1463 20.3886 20.3567 19.9886 20.507L19.7686 21.5992C19.7186 21.8297 19.5186 22 19.2786 22H18.0986C17.8586 22 17.6586 21.8297 17.6086 21.5992L17.3886 20.507C16.9886 20.3567 16.6286 20.1463 16.3086 19.8758L15.2486 20.2365C15.0286 20.3166 14.7786 20.2265 14.6586 20.016L14.0686 18.994C13.9486 18.7836 13.9886 18.523 14.1686 18.3627L15.0086 17.6313L15.0048 17.605C14.9761 17.4041 14.9486 17.2112 14.9486 17C14.9486 16.7887 14.9761 16.5959 15.0048 16.395L15.0086 16.3687L14.1686 15.6373C13.9886 15.477 13.9486 15.2164 14.0686 15.006L14.6586 13.984C14.7786 13.7836 15.0186 13.6834 15.2486 13.7635L16.3086 14.1242C16.6286 13.8537 16.9886 13.6433 17.3886 13.493L17.6086 12.4008C17.6586 12.1703 17.8586 12 18.0986 12H19.2786C19.5186 12 19.7186 12.1703 19.7686 12.4008L19.9886 13.493C20.3886 13.6433 20.7486 13.8537 21.0686 14.1242L22.1286 13.7635C22.3486 13.6834 22.5986 13.7735 22.7186 13.984L23.3086 15.006C23.4286 15.2164 23.3886 15.477 23.2086 15.6373L22.3686 16.3687L22.3723 16.395ZM16.6786 17C16.6786 18.1022 17.5786 19.004 18.6786 19.004C19.7786 19.004 20.6786 18.1022 20.6786 17C20.6786 15.8978 19.7786 14.996 18.6786 14.996C17.5786 14.996 16.6786 15.8978 16.6786 17Z" fill="black"/>
</svg>
