<svg width="24" height="24" viewBox="0 0 24 24" fill="none" xmlns="http://www.w3.org/2000/svg">
<path fill-rule="evenodd" clip-rule="evenodd" d="M4 4.5C4 3.11929 5.11929 2 6.5 2H17.5C18.8807 2 20 3.11929 20 4.5V19.5C20 20.8807 18.8807 22 17.5 22H6.5C5.11929 22 4 20.8807 4 19.5V4.5ZM6 5C6 4.44772 6.44772 4 7 4H17C17.5523 4 18 4.44772 18 5V19C18 19.5523 17.5523 20 17 20H7C6.44772 20 6 19.5523 6 19V5ZM12.5714 5H15.4286C15.7429 5 16 5.25 16 5.55556V10L14 9.16667L12 10V5.55556C12 5.25 12.2571 5 12.5714 5Z" fill="black"/>
</svg>
