<svg width="24" height="24" viewBox="0 0 24 24" fill="none" xmlns="http://www.w3.org/2000/svg">
<path fill-rule="evenodd" clip-rule="evenodd" d="M2 5C2 3.89543 2.89543 3 4 3H16C17.1046 3 18 3.89543 18 5V7H20C21.1046 7 22 7.89543 22 9V19C22 20.1046 21.1046 21 20 21H8C6.89543 21 6 20.1046 6 19V17H4C2.89543 17 2 16.1046 2 15V5ZM8 17V18C8 18.5523 8.44771 19 9 19H19C19.5523 19 20 18.5523 20 18V10C20 9.44772 19.5523 9 19 9H18V15C18 16.1046 17.1046 17 16 17H8ZM4 6C4 5.44772 4.44772 5 5 5H15C15.5523 5 16 5.44772 16 6V14C16 14.5523 15.5523 15 15 15H5C4.44772 15 4 14.5523 4 14V6ZM7 11C6.44772 11 6 11.4477 6 12C6 12.5523 6.44772 13 7 13H11C11.5523 13 12 12.5523 12 12C12 11.4477 11.5523 11 11 11H7ZM6 8C6 7.44772 6.44772 7 7 7H13C13.5523 7 14 7.44772 14 8C14 8.55228 13.5523 9 13 9H7C6.44772 9 6 8.55228 6 8Z" fill="black"/>
</svg>
