<svg id="icn_plugged" xmlns="http://www.w3.org/2000/svg" width="24" height="24" viewBox="0 0 24 24">
  <rect id="bg" width="24" height="24" fill="none"/>
  <g id="icn_plugged-2" data-name="icn_plugged">
    <path id="Path_1144" data-name="Path 1144" d="M9.879,10.586a1.5,1.5,0,0,0-2.121,0l-.354.353A4,4,0,0,0,6.786,15.8l-1.5,1.5A1,1,0,0,0,6.7,18.718l1.5-1.5a4,4,0,0,0,4.861-.618l.353-.354a1.5,1.5,0,0,0,0-2.121Z" fill-rule="evenodd"/>
    <path id="Path_1145" data-name="Path 1145" d="M18.718,5.282a1,1,0,0,0-1.414,0l-1.5,1.5a4,4,0,0,0-4.861.618l-.353.354a1.5,1.5,0,0,0,0,2.121l3.535,3.536a1.5,1.5,0,0,0,2.121,0l.354-.354A4,4,0,0,0,17.214,8.2l1.5-1.5A1,1,0,0,0,18.718,5.282ZM15.182,8.818l-.471-.471a1.333,1.333,0,0,0-1.886,0,.667.667,0,0,0,0,.943l1.886,1.886a.667.667,0,0,0,.943,0,1.333,1.333,0,0,0,0-1.886Z" fill-rule="evenodd"/>
  </g>
</svg>
