<svg id="icn_unplugged" xmlns="http://www.w3.org/2000/svg" width="24" height="24" viewBox="0 0 24 24">
  <rect id="bg" width="24" height="24" fill="none"/>
  <g id="icn_unplugged-2" data-name="icn_unplugged">
    <path id="Path_1141" data-name="Path 1141" d="M11.293,9.879a1,1,0,0,0-1.414,0L8.464,11.293q-.03.03-.057.062a1.5,1.5,0,0,0-1.711.292L6.343,12a4,4,0,0,0-.618,4.861l-1.5,1.5a1,1,0,1,0,1.414,1.414l1.5-1.5A4,4,0,0,0,12,17.657l.354-.354a1.5,1.5,0,0,0,.292-1.711c.021-.018.042-.037.062-.057l1.414-1.414a1,1,0,0,0-1.414-1.414l-1.414,1.414L9.879,12.707l1.414-1.414A1,1,0,0,0,11.293,9.879Z" fill-rule="evenodd"/>
    <path id="Path_1142" data-name="Path 1142" d="M19.778,4.222a1,1,0,0,0-1.414,0l-1.5,1.5A4,4,0,0,0,12,6.343l-.354.354a1.5,1.5,0,0,0,0,2.121l3.536,3.536a1.5,1.5,0,0,0,2.121,0L17.657,12a4,4,0,0,0,.618-4.861l1.5-1.5A1,1,0,0,0,19.778,4.222ZM16.243,7.757l-.471-.471a1.333,1.333,0,0,0-1.886,0,.667.667,0,0,0,0,.943l1.886,1.886a.667.667,0,0,0,.943,0,1.333,1.333,0,0,0,0-1.886Z" fill-rule="evenodd"/>
  </g>
</svg>
