<svg width="24" height="24" viewBox="0 0 24 24" fill="none" xmlns="http://www.w3.org/2000/svg">
<path fill-rule="evenodd" clip-rule="evenodd" d="M3 5C3 3.89543 3.89543 3 5 3H9C10.1046 3 11 3.89543 11 5V9L13 11H11H10H5C3.89543 11 3 10.1046 3 9V5ZM16.5 8C17.8833 8 19 9.11667 19 10.5C19 11.8833 17.8833 13 16.5 13C15.1167 13 14 11.8833 14 10.5C14 9.11667 15.1167 8 16.5 8ZM8 14C7.44772 14 7 14.4477 7 15C7 15.5523 7.44772 16 8 16H12V21H21V16C21 14.8954 20.1046 14 19 14H16H12H8Z" fill="black"/>
</svg>
