<svg width="99" height="88" viewBox="0 0 99 88" fill="none" xmlns="http://www.w3.org/2000/svg">
<path d="M91.0956 57.2506H54.0909C53.2457 57.2531 52.411 57.0628 51.6504 56.6942C50.8898 56.3256 50.2234 55.7883 49.7017 55.1233C49.1708 54.4524 48.7999 53.6692 48.6174 52.8334C48.4348 51.9975 48.4454 51.131 48.6483 50.2999C52.0502 36.0503 52.0502 21.2 48.648 6.9505C48.4453 6.11936 48.4348 5.25293 48.6174 4.41712C48.7999 3.58132 49.1707 2.79817 49.7016 2.12728C50.2233 1.46226 50.8898 0.925001 51.6504 0.556378C52.411 0.187754 53.2456 -0.00252807 54.0909 2.53627e-05H91.0956C92.4286 0.00400132 93.7168 0.481007 94.7309 1.34608C95.7451 2.21115 96.4192 3.40811 96.6333 4.72377C99.0723 20.5648 99.0723 36.6858 96.6333 52.5268C96.4192 53.8425 95.7451 55.0394 94.7309 55.9045C93.7168 56.7696 92.4286 57.2466 91.0956 57.2506Z" fill="#F3F4F6"/>
<path d="M72.6968 39.1072C78.5915 39.1072 83.3701 34.3286 83.3701 28.4338C83.3701 22.5391 78.5915 17.7605 72.6968 17.7605C66.8021 17.7605 62.0234 22.5391 62.0234 28.4338C62.0234 34.3286 66.8021 39.1072 72.6968 39.1072Z" fill="white"/>
<path d="M77.8012 27.0417H74.0887V23.3292C74.0887 22.96 73.942 22.6059 73.681 22.3448C73.4199 22.0837 73.0658 21.937 72.6965 21.937C72.3273 21.937 71.9732 22.0837 71.7121 22.3448C71.451 22.6059 71.3044 22.96 71.3044 23.3292V27.0417H67.5919C67.2227 27.0417 66.8685 27.1883 66.6075 27.4494C66.3464 27.7105 66.1997 28.0646 66.1997 28.4338C66.1997 28.8031 66.3464 29.1572 66.6075 29.4182C66.8685 29.6793 67.2227 29.826 67.5919 29.826H71.3044V33.5385C71.3044 33.9077 71.451 34.2618 71.7121 34.5229C71.9732 34.784 72.3273 34.9307 72.6965 34.9307C73.0658 34.9307 73.4199 34.784 73.681 34.5229C73.942 34.2618 74.0887 33.9077 74.0887 33.5385V29.826H77.8012C78.1704 29.826 78.5245 29.6793 78.7856 29.4182C79.0467 29.1572 79.1934 28.8031 79.1934 28.4338C79.1934 28.0646 79.0467 27.7105 78.7856 27.4494C78.5245 27.1883 78.1704 27.0417 77.8012 27.0417Z" fill="#E5E7EB"/>
<path d="M38.0159 87.5931L3.84342 73.395C3.09436 73.0865 2.42556 72.6111 1.88789 72.0051C1.35023 71.3992 0.957872 70.6785 0.740677 69.898C0.517382 69.1085 0.477171 68.2785 0.623091 67.4711C0.76901 66.6637 1.09722 65.9003 1.58273 65.2389C10.2132 53.3556 15.9252 39.6076 18.2565 25.1072C18.3828 24.2965 18.6923 23.5254 19.1614 22.8524C19.6306 22.1793 20.2471 21.6222 20.9641 21.2234C21.6704 20.8266 22.4579 20.5961 23.2667 20.5496C24.0756 20.503 24.8843 20.6416 25.6315 20.9547L59.804 35.1529C60.9824 35.6465 61.9474 36.5423 62.5271 37.6809C63.1067 38.8195 63.2634 40.1269 62.9692 41.3702C59.1492 56.9116 52.973 71.7767 44.655 85.4493C43.9815 86.535 42.9446 87.3465 41.7287 87.7391C40.5129 88.1317 39.1972 88.08 38.0159 87.5931Z" fill="#E5E7EB"/>
<path d="M24.5629 23.526C24.2042 23.3755 23.8158 23.3089 23.4274 23.3311C23.039 23.3533 22.6607 23.4638 22.3214 23.6542C21.9727 23.8488 21.6729 24.1204 21.4449 24.4483C21.2169 24.7763 21.0667 25.1518 21.0057 25.5465C18.6047 40.4803 12.722 54.6391 3.83365 66.8775C3.59695 67.199 3.43674 67.5704 3.36521 67.9633C3.29369 68.3561 3.31272 68.7601 3.42088 69.1445L3.42101 69.1448C3.52537 69.5196 3.71388 69.8656 3.97217 70.1566C4.23045 70.4475 4.55171 70.6757 4.9115 70.8238L39.084 85.0219C39.6506 85.2575 40.2823 85.2844 40.8668 85.0978C41.4513 84.9111 41.9506 84.5231 42.2757 84.0028C50.4462 70.5725 56.5129 55.9709 60.2652 40.705C60.4046 40.1074 60.3273 39.4798 60.0471 38.934C59.767 38.3881 59.3022 37.9594 58.7355 37.7241L24.5629 23.526Z" fill="white"/>
<path d="M42.7587 55.1319L24.8263 47.6812C24.145 47.3973 23.6041 46.8546 23.3223 46.1723C23.0406 45.49 23.041 44.7238 23.3235 44.0418L23.7409 43.0371C24.0249 42.3557 24.5676 41.8148 25.2499 41.533C25.9322 41.2513 26.6984 41.2517 27.3804 41.5342L45.3127 48.9848C45.9941 49.2687 46.535 49.8114 46.8167 50.4937C47.0985 51.176 47.0981 51.9422 46.8156 52.6242L46.3981 53.629C46.1141 54.3103 45.5715 54.8512 44.8892 55.133C44.2069 55.4147 43.4407 55.4143 42.7587 55.1319Z" fill="#9CA3AF"/>
<path d="M37.4833 67.8276L19.551 60.3771C18.8696 60.0931 18.3287 59.5504 18.047 58.8681C17.7652 58.1858 17.7656 57.4196 18.0481 56.7376L18.4656 55.7329C18.7495 55.0515 19.2922 54.5106 19.9745 54.2288C20.6568 53.9471 21.423 53.9475 22.105 54.23L40.0374 61.6806C40.7187 61.9646 41.2596 62.5072 41.5414 63.1895C41.8231 63.8718 41.8227 64.638 41.5402 65.32L41.1228 66.3248C40.8388 67.0062 40.2961 67.5471 39.6138 67.8288C38.9315 68.1106 38.1653 68.1101 37.4833 67.8276Z" fill="#9CA3AF"/>
<path d="M49.9439 37.2889C49.6755 37.2886 49.4096 37.2366 49.161 37.1355L31.0914 29.8299C30.5784 29.6218 30.1689 29.2187 29.9527 28.7091C29.7364 28.1994 29.7312 27.6248 29.9381 27.1113L31.3297 23.6694C31.5374 23.156 31.9404 22.746 32.4503 22.5298C32.9601 22.3135 33.535 22.3087 34.0485 22.5162L52.118 29.8218C52.631 30.0299 53.0405 30.433 53.2568 30.9426C53.473 31.4523 53.4782 32.0269 53.2713 32.5404L51.8797 35.9823C51.7234 36.3678 51.4557 36.6979 51.111 36.9306C50.7662 37.1633 50.3599 37.2881 49.9439 37.2889Z" fill="#9CA3AF"/>
</svg>
