<svg width="146" height="143" viewBox="0 0 146 143" fill="none" xmlns="http://www.w3.org/2000/svg">
<path d="M92.5863 32.5347H53.7631C52.8784 32.5358 52.0302 32.8892 51.4046 33.5175C50.779 34.1458 50.4271 34.9977 50.426 35.8863V122.546L49.9811 122.682L40.4571 125.612C40.0058 125.75 39.5182 125.703 39.1016 125.48C38.6849 125.258 38.3731 124.878 38.2347 124.425L9.9053 31.4868C9.76743 31.0335 9.81442 30.5437 10.0359 30.1251C10.2574 29.7066 10.6354 29.3935 11.0866 29.2547L25.763 24.7412L68.3104 11.6612L82.9867 7.14782C83.21 7.07878 83.4448 7.05466 83.6774 7.07683C83.91 7.099 84.136 7.16703 84.3425 7.27702C84.5489 7.38701 84.7317 7.53681 84.8805 7.71785C85.0292 7.89888 85.1409 8.10759 85.2092 8.33204L92.4506 32.0878L92.5863 32.5347Z" fill="#F9FAFB"/>
<path d="M101.756 32.0616L101.756 32.062L101.892 32.5073L102.09 33.1536H101.414H100.949H100.581L100.472 32.802L100.334 32.3567L100.333 32.355L91.6162 3.95372L101.756 32.0616ZM101.756 32.0616L92.9985 3.53104C92.8335 2.99272 92.5638 2.49218 92.2048 2.05799C91.8459 1.62382 91.4048 1.26452 90.9067 1.00057C90.4087 0.736615 89.8634 0.573165 89.3021 0.519519C88.7408 0.465872 88.1744 0.523074 87.6352 0.687865M101.756 32.0616L87.6352 0.687865M87.6352 0.687865L66.9311 7.00894L67.0618 7.43678L66.9311 7.00894L24.2415 20.0453L24.2415 20.0453L3.53727 26.3686L3.53689 26.3687C2.44875 26.702 1.53725 27.4524 1.00279 28.4557C0.468307 29.4591 0.354731 30.6331 0.68712 31.72L0.687272 31.7205L30.6174 129.227L30.6175 129.227C30.8875 130.104 31.4322 130.872 32.1714 131.418C32.9106 131.963 33.8054 132.258 34.7246 132.259H34.7249C35.1506 132.259 35.574 132.195 35.9808 132.07L35.9805 132.07L35.8505 131.644M87.6352 0.687865L35.9819 132.069L35.8506 131.644M35.8505 131.644L35.8506 131.644M35.8505 131.644L35.8345 131.592L35.8506 131.644M35.8505 131.644L35.8489 131.645L35.8483 131.645C35.4808 131.756 35.1023 131.812 34.725 131.812C34.1009 131.812 33.4803 131.66 32.919 131.363C32.7496 131.273 32.5883 131.171 32.436 131.059C31.778 130.574 31.2875 129.888 31.044 129.098L31.0438 129.098L31.0433 129.096L50.1727 127.27L50.0428 127.309L50.0426 127.309L35.8506 131.644M31.9996 128.804L2.07194 31.2957L2.07176 31.2951C1.96195 30.9388 1.92368 30.5644 1.95914 30.1934C1.99459 29.8224 2.10308 29.4619 2.27842 29.1327C2.45377 28.8034 2.69257 28.5119 2.98119 28.2746C3.2698 28.0374 3.60257 27.8593 3.96045 27.7505L3.96102 27.7503L24.6652 21.4269L24.6652 21.4269L67.3549 8.39285L67.2243 7.965L67.355 8.39284L88.0587 2.06963C88.3305 1.98691 88.613 1.94469 88.8971 1.94435C89.5063 1.94588 90.0988 2.14184 90.588 2.50338C91.0774 2.86499 91.4376 3.37319 91.6161 3.9534L31.9996 128.804ZM31.9996 128.804C32.2213 129.523 32.7202 130.126 33.3872 130.479C34.054 130.832 34.8343 130.908 35.5568 130.688L31.9996 128.804Z" fill="#9CA3AF" stroke="#9CA3AF"/>
<path d="M28.4666 29.6899C28.0398 29.6896 27.6244 29.5517 27.2813 29.2964C26.9381 29.0412 26.6853 28.682 26.5599 28.2717L23.708 18.9C23.6313 18.6483 23.6047 18.3838 23.6297 18.1218C23.6547 17.8597 23.7307 17.6051 23.8535 17.3726C23.9763 17.1401 24.1434 16.9342 24.3452 16.7667C24.5471 16.5992 24.7798 16.4733 25.0301 16.3962L63.9861 4.39792C64.4915 4.24278 65.0374 4.29569 65.504 4.54504C65.9706 4.79439 66.3198 5.21981 66.475 5.72792L69.3269 15.0996C69.4811 15.608 69.4284 16.1572 69.1806 16.6266C68.9327 17.096 68.5099 17.4474 68.0049 17.6035L29.0488 29.6019C28.8601 29.6601 28.6639 29.6898 28.4666 29.6899V29.6899Z" fill="#9CA3AF"/>
<path d="M43.4826 10.9311C45.9203 10.9311 47.8964 8.95498 47.8964 6.51731C47.8964 4.07964 45.9203 2.10352 43.4826 2.10352C41.045 2.10352 39.0688 4.07964 39.0688 6.51731C39.0688 8.95498 41.045 10.9311 43.4826 10.9311Z" fill="#9CA3AF"/>
<path d="M43.4827 9.27603C45.0063 9.27603 46.2414 8.04095 46.2414 6.51741C46.2414 4.99387 45.0063 3.75879 43.4827 3.75879C41.9592 3.75879 40.7241 4.99387 40.7241 6.51741C40.7241 8.04095 41.9592 9.27603 43.4827 9.27603Z" fill="white"/>
<path d="M135.374 130.655H59.7299C59.2256 130.655 58.7421 130.456 58.3854 130.101C58.0288 129.747 57.8282 129.267 57.8276 128.766V38.7515C57.8282 38.2506 58.0288 37.7704 58.3854 37.4163C58.742 37.0621 59.2256 36.8629 59.7299 36.8623H135.374C135.878 36.8629 136.361 37.0621 136.718 37.4163C137.075 37.7704 137.275 38.2506 137.276 38.7515V128.766C137.275 129.267 137.075 129.747 136.718 130.101C136.361 130.456 135.878 130.655 135.374 130.655V130.655Z" fill="#E5E7EB"/>
<path d="M49.6035 126.769V127.444L49.6035 137.915L49.6035 137.916C49.6051 139.049 50.0552 140.135 50.8553 140.936C51.6554 141.737 52.7402 142.188 53.8721 142.19H53.8728H141.231H141.232C142.363 142.188 143.448 141.737 144.248 140.936C145.048 140.135 145.498 139.049 145.5 137.916V137.915V36.2228V36.2221C145.498 35.0894 145.048 34.0033 144.248 33.2021C143.448 32.4008 142.363 31.9498 141.232 31.9482L141.231 32.3923V31.9482H100.914H100.545L53.8728 31.9482L53.8721 31.9482C52.7402 31.9498 51.6554 32.4008 50.8553 33.2021C50.0552 34.0033 49.6051 35.0893 49.6035 36.2221V36.2228V126.769ZM51.8761 34.2223C52.4059 33.6917 53.1241 33.3933 53.8731 33.3923H100.683H101.361H141.23C141.979 33.3933 142.698 33.6917 143.228 34.2223C143.757 34.753 144.056 35.4726 144.057 36.2234V137.914C144.056 138.665 143.757 139.385 143.228 139.916C142.698 140.446 141.979 140.745 141.23 140.746H53.8734C53.1243 140.745 52.406 140.446 51.8761 139.916C51.3462 139.385 51.048 138.665 51.047 137.915V127.003V126.633V36.2231C51.048 35.4724 51.3462 34.7529 51.8761 34.2223Z" fill="#9CA3AF" stroke="#9CA3AF"/>
<path d="M118.157 41.8273H76.9469C76.4124 41.8267 75.9001 41.6155 75.5222 41.2402C75.1443 40.8648 74.9318 40.3559 74.9312 39.8251V30.0364C74.9318 29.5056 75.1443 28.9966 75.5222 28.6213C75.9001 28.2459 76.4124 28.0348 76.9469 28.0342H118.157C118.691 28.0348 119.204 28.2459 119.581 28.6213C119.959 28.9966 120.172 29.5056 120.173 30.0364V39.8251C120.172 40.3559 119.959 40.8648 119.581 41.2402C119.204 41.6155 118.691 41.8267 118.157 41.8273V41.8273Z" fill="#9CA3AF"/>
<path d="M97.5517 29.1381C99.9894 29.1381 101.966 27.0385 101.966 24.4484C101.966 21.8584 99.9894 19.7588 97.5517 19.7588C95.1141 19.7588 93.1379 21.8584 93.1379 24.4484C93.1379 27.0385 95.1141 29.1381 97.5517 29.1381Z" fill="#9CA3AF"/>
<path d="M97.5518 26.9313C99.0754 26.9313 100.31 25.8198 100.31 24.4486C100.31 23.0774 99.0754 21.9658 97.5518 21.9658C96.0283 21.9658 94.7932 23.0774 94.7932 24.4486C94.7932 25.8198 96.0283 26.9313 97.5518 26.9313Z" fill="white"/>
</svg>
