<svg width="160" height="135" viewBox="0 0 160 135" fill="none" xmlns="http://www.w3.org/2000/svg">
<path d="M99.8841 1.74734C78.9674 -0.979949 61.8241 9.40697 43.3655 26.8926C28.3867 41.0707 4.06046 42.0055 2.62387 64.6105C0.880812 92.1284 46.1238 94.3399 59.4489 107.641C94.872 143.102 140.734 138.402 152.585 105.849C163.139 76.8736 145.957 63.379 139.898 44.7328C131.132 17.8532 121.956 4.62293 99.8841 1.74734Z" fill="#E5E7EB"/>
<path d="M70.7072 83.3661L49.9584 109.543C48.8458 110.936 47.2314 111.829 45.4676 112.027C43.7038 112.225 41.9338 111.712 40.544 110.6C39.16 109.479 38.2722 107.852 38.0744 106.074C37.8765 104.296 38.3847 102.512 39.488 101.11L60.2368 74.9392" fill="white"/>
<path d="M89.0048 93.7983C107.82 93.7983 123.072 78.4327 123.072 59.4783C123.072 40.5238 107.82 25.1582 89.0048 25.1582C70.19 25.1582 54.9376 40.5238 54.9376 59.4783C54.9376 78.4327 70.19 93.7983 89.0048 93.7983Z" fill="white"/>
<path d="M73.7984 89.6653L53.056 115.836C51.9432 117.231 50.3275 118.125 48.5622 118.323C46.7968 118.521 45.0254 118.007 43.6352 116.893C42.2507 115.772 41.363 114.144 41.1663 112.366C40.9697 110.587 41.4799 108.803 42.5856 107.402L64.768 79.3364" fill="white"/>
<path d="M58.9952 30.0002C53.9554 36.336 51.2011 44.2084 51.1836 52.3275C51.1661 60.4466 53.8864 68.3309 58.8988 74.6887C63.9112 81.0465 70.9185 85.5007 78.7725 87.3215C86.6265 89.1423 94.8615 88.2217 102.128 84.7106C109.395 81.1995 115.263 75.3061 118.769 67.996C122.276 60.6859 123.215 52.3926 121.431 44.4748C119.647 36.5571 115.247 29.4845 108.951 24.4159C102.655 19.3473 94.8369 16.5832 86.7776 16.5765C81.4405 16.552 76.1675 17.7472 71.3553 20.0723C66.5431 22.3975 62.317 25.7919 58.9952 30.0002ZM86.7776 19.5037C94.1614 19.5162 101.322 22.054 107.087 26.7015C112.853 31.3489 116.881 37.8307 118.512 45.0854C120.144 52.3402 119.282 59.938 116.068 66.6349C112.853 73.3317 107.478 78.7308 100.82 81.9479C94.1625 85.1651 86.618 86.0098 79.4218 84.3436C72.2256 82.6774 65.8042 78.5992 61.2089 72.7767C56.6137 66.9541 54.117 59.7323 54.1275 52.2937C54.1381 44.8552 56.6554 37.6406 61.2672 31.8313C64.3288 27.98 68.2115 24.8721 72.6276 22.7381C77.0436 20.6041 81.8798 19.4987 86.7776 19.5037Z" fill="#9CA3AF"/>
<path d="M44.704 113.179C43.2376 113.173 41.8027 112.751 40.5635 111.961C39.3243 111.171 38.331 110.045 37.6972 108.713C37.0634 107.381 36.8148 105.896 36.9799 104.428C37.1449 102.96 37.7169 101.569 38.6304 100.413L59.3728 74.2429L61.1008 75.6291L40.352 101.806C39.4619 102.978 39.0632 104.455 39.2412 105.92C39.4193 107.384 40.16 108.721 41.3045 109.642C42.4491 110.563 43.9063 110.995 45.3637 110.847C46.8211 110.698 48.1627 109.98 49.1008 108.847L69.8432 82.6763L71.5712 84.0625L50.8224 110.252C50.183 111.06 49.3912 111.732 48.4927 112.23C47.5942 112.728 46.6067 113.042 45.5872 113.154C45.2935 113.178 44.9987 113.187 44.704 113.179Z" fill="#9CA3AF"/>
<path d="M83.6381 50.9224L73.7432 58.8459L75.4596 61.0213L85.3545 53.0978L83.6381 50.9224Z" fill="#9CA3AF"/>
<path d="M75.46 50.92L73.744 53.0957L83.6403 61.0175L85.3563 58.8418L75.46 50.92Z" fill="#9CA3AF"/>
<path d="M83.7568 76.7252C83.4121 76.7244 83.0762 76.6154 82.7959 76.4133C82.5156 76.2112 82.3047 75.9261 82.1928 75.5977C82.0808 75.2692 82.0733 74.9138 82.1712 74.5808C82.2692 74.2479 82.4677 73.954 82.7392 73.74C85.3671 71.7324 88.5633 70.6239 91.8609 70.5763C95.1586 70.5287 98.385 71.5447 101.069 73.4756C101.378 73.748 101.576 74.1269 101.623 74.5382C101.67 74.9495 101.563 75.3637 101.323 75.6998C101.083 76.0359 100.727 76.2697 100.325 76.3556C99.923 76.4415 99.5036 76.3733 99.1488 76.1643C97.0945 74.6881 94.6321 73.8988 92.1088 73.9076C89.4712 73.8918 86.9029 74.7581 84.8064 76.3706C84.5075 76.6069 84.1368 76.7322 83.7568 76.7252Z" fill="#9CA3AF"/>
<path d="M108.246 50.9256L98.3509 58.8491L100.067 61.0245L109.962 53.101L108.246 50.9256Z" fill="#9CA3AF"/>
<path d="M100.068 50.9176L98.3519 53.0933L108.248 61.015L109.964 58.8394L100.068 50.9176Z" fill="#9CA3AF"/>
<path d="M70.0096 46.2028C69.7065 46.2018 69.4095 46.1171 69.1509 45.9579C68.8923 45.7987 68.6819 45.5712 68.5427 45.3C68.4034 45.0288 68.3407 44.7243 68.3612 44.4197C68.3818 44.115 68.4848 43.8219 68.6592 43.5722C68.9984 43.0886 69.344 42.6179 69.7152 42.1537C74.4566 36.1537 81.3559 32.28 88.9152 31.3735C89.1308 31.3468 89.3495 31.3632 89.5588 31.4217C89.7681 31.4801 89.9639 31.5796 90.135 31.7143C90.3062 31.849 90.4493 32.0163 90.5563 32.2068C90.6632 32.3972 90.7319 32.607 90.7584 32.8242C90.7849 33.0414 90.7686 33.2617 90.7106 33.4725C90.6525 33.6834 90.5539 33.8807 90.4201 34.0531C90.2864 34.2255 90.1203 34.3697 89.9313 34.4775C89.7422 34.5852 89.534 34.6544 89.3184 34.6811C82.6245 35.4921 76.5174 38.9274 72.32 44.2427C71.9936 44.6489 71.68 45.068 71.3856 45.4935C71.2311 45.7159 71.0249 45.8967 70.7851 46.0204C70.5452 46.144 70.279 46.2066 70.0096 46.2028Z" fill="white"/>
</svg>
