<svg width="12" height="5" viewBox="0 0 12 5" fill="none" xmlns="http://www.w3.org/2000/svg">
<path fill-rule="evenodd" clip-rule="evenodd" d="M9.5 1C9.22386 1 9 1.22386 9 1.5C9 1.77614 9.22386 2 9.5 2L10.5 2C10.7761 2 11 1.77614 11 1.5C11 1.22386 10.7761 1 10.5 1L9.5 1ZM1.5 3C1.22386 3 1 3.22386 1 3.5C1 3.77614 1.22386 4 1.5 4L10.5 4C10.7761 4 11 3.77614 11 3.5C11 3.22386 10.7761 3 10.5 3L1.5 3ZM1 1.5C1 1.22386 1.22386 1 1.5 1L2.5 1C2.77614 1 3 1.22386 3 1.5C3 1.77614 2.77614 2 2.5 2L1.5 2C1.22386 2 1 1.77614 1 1.5ZM5.5 1C5.22386 1 5 1.22386 5 1.5C5 1.77614 5.22386 2 5.5 2L6.5 2C6.77614 2 7 1.77614 7 1.5C7 1.22386 6.77614 1 6.5 1L5.5 1Z" fill="black" fill-opacity="0.3"/>
</svg>