<svg xmlns="http://www.w3.org/2000/svg" width="149.989" height="160" viewBox="0 0 149.989 160">
  <g id="Group_3941" data-name="Group 3941" transform="translate(31.858 -117.7)">
    <path id="Path_890" data-name="Path 890" d="M-5.474,135.01a8.481,8.481,0,0,0-8.48,8.48,8.479,8.479,0,0,0,8.48,8.48,8.478,8.478,0,0,0,8.48-8.48A8.479,8.479,0,0,0-5.474,135.01Z" transform="translate(26.856 25.965)" fill="#d3d6e0"/>
    <path id="Path_891" data-name="Path 891" d="M5.044,139.02a9.56,9.56,0,1,0-9.56-9.56A9.56,9.56,0,0,0,5.044,139.02Z" transform="translate(41.012 3.301)" fill="#d3d6e0"/>
    <path id="Path_892" data-name="Path 892" d="M84.246,140.016c-1.135,1.42-2.33,2.852-3.577,4.275a69.335,69.335,0,0,1,18.877,98.887c-12.982-8.185-31.97-17.222-53.185-17.957,7.555-12.69,15.012-45.04,15.012-72.072,16.595-13.347,28.982-32.61,26.657-35.082s-2.747,7.525-43.912,30.875c-3.362,1.907-7.42,7.062-8.355,11.277-.747,3.375-4.062,15.925-6.307,22.917-3.122-3.487-11.082-3.315-15.4,1.953-1.6,1.948-9.345,12.01-13.927,17.042-4.637,5.087-.865,4.042,2.327,2.363a93.623,93.623,0,0,0,14.9-10.7c3.1,10.012,3.932,26.38,6.065,33.467a99.553,99.553,0,0,0-36.512,16.175,69.067,69.067,0,0,1-13.242-40.727,69.586,69.586,0,0,1,55.87-68.127,16.775,16.775,0,0,1-.1-1.817,16.561,16.561,0,0,1,.477-3.883,75.059,75.059,0,1,0,54.34,11.137ZM38.8,225.265c-3.282.158-6.44.48-9.49.93,2.612-8.125,3-24.815,2.682-30.287a31.565,31.565,0,0,0,3.485,6.1c2.375,3.275,4.017,2.49,2.2-2.162a125.818,125.818,0,0,0-5.632-12.507c3-4.253,8.267-14.167,10.625-18.56C44.089,199.9,40.031,217.325,38.8,225.265Z" transform="translate(0 0)" fill="#d3d6e0"/>
  </g>
</svg>
