<svg id="undraw_empty_street_sfxm" xmlns="http://www.w3.org/2000/svg" width="400" height="180" viewBox="0 0 400 180">
  <rect id="Rectangle_2905" data-name="Rectangle 2905" width="12.09" height="41.684" transform="translate(349.544 72.493)" fill="#f2f2f2"/>
  <path id="Path_914" data-name="Path 914" d="M736.386,213.9l-29.4-34.843-59.022.537-35.8,34.737.724.463h-.259v72.253H736.307V214.789Z" transform="translate(-366.769 -107.56)" fill="#f2f2f2"/>
  <path id="Path_915" data-name="Path 915" d="M793.888,179.238l-36.734,42.9v65.019h66.028V213.975Z" transform="translate(-453.643 -107.671)" fill="#e6e6e6"/>
  <rect id="Rectangle_2906" data-name="Rectangle 2906" width="13.485" height="11.872" transform="translate(330.015 143.527)" fill="#3f3d56"/>
  <rect id="Rectangle_2907" data-name="Rectangle 2907" width="13.485" height="11.684" transform="translate(330.015 122.977)" fill="#3f3d56"/>
  <rect id="Rectangle_2908" data-name="Rectangle 2908" width="13.485" height="11.872" transform="translate(330.015 143.527)" fill="#fff"/>
  <rect id="Rectangle_2909" data-name="Rectangle 2909" width="13.485" height="11.684" transform="translate(330.015 122.977)" fill="#fff"/>
  <rect id="Rectangle_2910" data-name="Rectangle 2910" width="13.485" height="11.872" transform="translate(270.088 140.376)" fill="#fff"/>
  <rect id="Rectangle_2911" data-name="Rectangle 2911" width="13.485" height="11.684" transform="translate(270.088 119.827)" fill="#fff"/>
  <rect id="Rectangle_2912" data-name="Rectangle 2912" width="12.09" height="41.684" transform="translate(254.14 72.493)" fill="#f2f2f2"/>
  <path id="Path_916" data-name="Path 916" d="M498.387,213.9l-29.4-34.843-59.022.537-35.8,34.737.724.463h-.259v72.253H498.308V214.789Z" transform="translate(-224.173 -107.56)" fill="#f2f2f2"/>
  <path id="Path_917" data-name="Path 917" d="M555.888,179.238l-36.734,42.9v65.019h66.028V213.975Z" transform="translate(-311.047 -107.671)" fill="#e6e6e6"/>
  <rect id="Rectangle_2913" data-name="Rectangle 2913" width="13.485" height="11.872" transform="translate(234.611 143.527)" fill="#3f3d56"/>
  <rect id="Rectangle_2914" data-name="Rectangle 2914" width="13.485" height="11.684" transform="translate(234.611 122.977)" fill="#3f3d56"/>
  <rect id="Rectangle_2915" data-name="Rectangle 2915" width="13.485" height="11.872" transform="translate(234.611 143.527)" fill="#fff"/>
  <rect id="Rectangle_2916" data-name="Rectangle 2916" width="13.485" height="11.684" transform="translate(234.611 122.977)" fill="#fff"/>
  <rect id="Rectangle_2917" data-name="Rectangle 2917" width="13.485" height="11.872" transform="translate(174.684 140.376)" fill="#fff"/>
  <rect id="Rectangle_2918" data-name="Rectangle 2918" width="13.485" height="11.684" transform="translate(174.684 119.827)" fill="#fff"/>
  <rect id="Rectangle_2919" data-name="Rectangle 2919" width="16.155" height="55.7" transform="translate(152.387 36.519)" fill="#f2f2f2"/>
  <path id="Path_918" data-name="Path 918" d="M198.953,134.671,159.662,88.112l-78.868.718L32.951,135.247l.966.619h-.345v96.547H198.847V135.866Z" transform="translate(-19.742 -52.93)" fill="#f2f2f2"/>
  <path id="Path_919" data-name="Path 919" d="M275.787,88.36,226.7,145.681v86.881h88.229V134.777Z" transform="translate(-135.827 -53.079)" fill="#e6e6e6"/>
  <rect id="Rectangle_2920" data-name="Rectangle 2920" width="18.019" height="15.864" transform="translate(126.291 131.437)" fill="#3f3d56"/>
  <rect id="Rectangle_2921" data-name="Rectangle 2921" width="18.019" height="15.612" transform="translate(126.291 103.978)" fill="#3f3d56"/>
  <rect id="Rectangle_2922" data-name="Rectangle 2922" width="18.019" height="15.864" transform="translate(126.291 131.437)" fill="#fff"/>
  <rect id="Rectangle_2923" data-name="Rectangle 2923" width="18.019" height="15.612" transform="translate(126.291 103.978)" fill="#fff"/>
  <rect id="Rectangle_2924" data-name="Rectangle 2924" width="18.019" height="15.864" transform="translate(46.215 127.227)" fill="#fff"/>
  <rect id="Rectangle_2925" data-name="Rectangle 2925" width="18.019" height="15.612" transform="translate(46.215 99.769)" fill="#fff"/>
  <rect id="Rectangle_2926" data-name="Rectangle 2926" width="386.407" height="0.799" transform="translate(0 179.126)" fill="#3f3d56"/>
  <ellipse id="Ellipse_206" data-name="Ellipse 206" cx="11.665" cy="23.707" rx="11.665" ry="23.707" transform="translate(49.214 117.029)" fill="#3f3d56"/>
  <path id="Path_920" data-name="Path 920" d="M252.51,589.978c-4.672-27.92-.047-55.739,0-56.017l.909.153c-.047.276-4.645,27.949,0,55.713Z" transform="translate(-190.553 -410.437)" fill="#d3d6e0"/>
  <path id="Path_934" data-name="Path 934" d="M0,0,11.952.02l0,.919L0,.919Z" transform="translate(60.6 141.257) rotate(-28.142)" fill="#d3d6e0"/>
  <path id="Path_935" data-name="Path 935" d="M0,0,.919,0l.02,11.952-.919,0Z" transform="translate(49.468 139.262) rotate(-61.842)" fill="#d3d6e0"/>
  <ellipse id="Ellipse_207" data-name="Ellipse 207" cx="22.815" cy="46.368" rx="22.815" ry="46.368" transform="translate(10.038 57.806)" fill="#d3d6e0"/>
  <path id="Path_921" data-name="Path 921" d="M183.271,510.788c-9.125-54.536-.092-108.874,0-109.416l.909.153c-.092.541-9.1,54.733,0,109.112Z" transform="translate(-147.878 -330.788)" fill="#3f3d56"/>
  <path id="Path_936" data-name="Path 936" d="M0,0,23.377.038l0,.919L0,.919Z" transform="translate(32.515 105.582) rotate(-28.142)" fill="#3f3d56"/>
  <path id="Path_937" data-name="Path 937" d="M0,0,.919,0,.957,23.378l-.919,0Z" transform="translate(10.741 100.907) rotate(-61.842)" fill="#3f3d56"/>
  <ellipse id="Ellipse_208" data-name="Ellipse 208" cx="31.22" cy="63.452" rx="31.22" ry="63.452" transform="translate(55.667 12.815)" fill="#d3d6e0"/>
  <path id="Path_922" data-name="Path 922" d="M318.582,450.225c-12.483-74.6-.126-148.929,0-149.671l.909.153c-.126.741-12.456,74.923,0,149.367Z" transform="translate(-228.05 -270.225)" fill="#3f3d56"/>
  <path id="Path_938" data-name="Path 938" d="M0,0,31.989.052l0,.919L0,.919Z" transform="translate(86.505 78.342) rotate(-28.142)" fill="#3f3d56"/>
  <path id="Path_939" data-name="Path 939" d="M0,0,.919,0,.971,31.99l-.919,0Z" transform="matrix(0.472, -0.882, 0.882, 0.472, 56.71, 71.644)" fill="#3f3d56"/>
  <ellipse id="Ellipse_209" data-name="Ellipse 209" cx="11.665" cy="23.707" rx="11.665" ry="23.707" transform="translate(337.494 117.029)" fill="#3f3d56"/>
  <path id="Path_923" data-name="Path 923" d="M968.053,589.978c4.672-27.92.047-55.739,0-56.017l-.909.153c.047.276,4.645,27.949,0,55.713Z" transform="translate(-619.971 -410.437)" fill="#d3d6e0"/>
  <path id="Path_940" data-name="Path 940" d="M0,0,.919,0l.02,11.952-.919,0Z" transform="translate(338.452 136.449) rotate(-61.858)" fill="#d3d6e0"/>
  <path id="Path_941" data-name="Path 941" d="M0,0,11.952.02l0,.919L0,.919Z" transform="translate(349.587 144.078) rotate(-28.158)" fill="#d3d6e0"/>
  <ellipse id="Ellipse_210" data-name="Ellipse 210" cx="22.815" cy="46.368" rx="22.815" ry="46.368" transform="translate(354.371 57.806)" fill="#d3d6e0"/>
  <path id="Path_924" data-name="Path 924" d="M1034.317,510.788c9.125-54.536.092-108.874,0-109.416l-.909.153c.092.541,9.1,54.733,0,109.112Z" transform="translate(-659.673 -330.788)" fill="#3f3d56"/>
  <path id="Path_942" data-name="Path 942" d="M0,0,.919,0,.957,23.378l-.919,0Z" transform="translate(356.454 95.402) rotate(-61.858)" fill="#3f3d56"/>
  <path id="Path_943" data-name="Path 943" d="M0,0,23.377.038l0,.919L0,.919Z" transform="translate(378.232 111.092) rotate(-28.158)" fill="#3f3d56"/>
  <ellipse id="Ellipse_211" data-name="Ellipse 211" cx="31.22" cy="63.452" rx="31.22" ry="63.452" transform="translate(291.93 12.815)" fill="#d3d6e0"/>
  <path id="Path_925" data-name="Path 925" d="M896.765,450.225c12.483-74.6.126-148.929,0-149.671l-.909.153c.126.741,12.456,74.923,0,149.367Z" transform="translate(-577.26 -270.225)" fill="#3f3d56"/>
  <path id="Path_944" data-name="Path 944" d="M0,0,.919,0,.971,31.991l-.919,0Z" transform="translate(294.863 64.111) rotate(-61.858)" fill="#3f3d56"/>
  <path id="Path_945" data-name="Path 945" d="M0,0,31.989.052l0,.919L0,.919Z" transform="matrix(0.882, -0.472, 0.472, 0.882, 324.663, 85.886)" fill="#3f3d56"/>
  <path id="Path_926" data-name="Path 926" d="M682.432,321.577l3.69-2.94c-2.867-.315-4.045,1.242-4.527,2.475a6.308,6.308,0,0,0-4.678.288l7.383,2.67A5.567,5.567,0,0,0,682.432,321.577Z" transform="translate(-446.085 -281.063)" fill="#3f3d56"/>
  <path id="Path_927" data-name="Path 927" d="M457.432,256.577l3.69-2.94c-2.867-.315-4.045,1.242-4.527,2.475a6.308,6.308,0,0,0-4.678.288l7.383,2.67A5.567,5.567,0,0,0,457.432,256.577Z" transform="translate(-311.278 -242.017)" fill="#3f3d56"/>
  <path id="Path_928" data-name="Path 928" d="M824.432,227.577l3.69-2.94c-2.867-.315-4.045,1.242-4.527,2.475a6.308,6.308,0,0,0-4.678.288l7.383,2.67a5.567,5.567,0,0,0-1.869-2.493Z" transform="translate(-531.163 -224.596)" fill="#3f3d56"/>
  <path id="Path_929" data-name="Path 929" d="M832.088,660.448a5.6,5.6,0,0,0-2.794.747,6.008,6.008,0,0,0-10.033,4.444H837.68A5.6,5.6,0,0,0,832.088,660.448Z" transform="translate(-531.368 -485.94)" fill="#3f3d56"/>
  <path id="Path_930" data-name="Path 930" d="M365.088,660.448a5.6,5.6,0,0,0-2.794.747,6.008,6.008,0,0,0-10.033,4.444H370.68a5.6,5.6,0,0,0-5.592-5.191Z" transform="translate(-251.569 -485.94)" fill="#3f3d56"/>
  <path id="Path_931" data-name="Path 931" d="M604.088,660.448a5.6,5.6,0,0,0-2.794.747,6.008,6.008,0,0,0-10.033,4.444H609.68A5.6,5.6,0,0,0,604.088,660.448Z" transform="translate(-394.764 -485.94)" fill="#3f3d56"/>
  <path id="Path_932" data-name="Path 932" d="M392.332,404.228H339.191v1.707h8.288v16.221h1.714V405.935h32.28v16.221h1.714V405.935h9.145Z" transform="translate(-203.224 -242.827)" fill="#3f3d56"/>
  <rect id="Rectangle_2939" data-name="Rectangle 2939" width="53.141" height="1.707" transform="translate(136.072 156.293)" fill="#3f3d56"/>
  <rect id="Rectangle_2940" data-name="Rectangle 2940" width="53.141" height="1.707" transform="translate(136.072 152.024)" fill="#3f3d56"/>
  <rect id="Rectangle_2941" data-name="Rectangle 2941" width="53.141" height="1.707" transform="translate(136.072 147.755)" fill="#3f3d56"/>
  <path id="Path_933" data-name="Path 933" d="M599.332,404.228H546.191v1.707h8.288v16.221h1.714V405.935h32.28v16.221h1.714V405.935h9.145Z" transform="translate(-327.246 -242.827)" fill="#3f3d56"/>
  <rect id="Rectangle_2942" data-name="Rectangle 2942" width="53.141" height="1.707" transform="translate(219.049 156.293)" fill="#3f3d56"/>
  <rect id="Rectangle_2943" data-name="Rectangle 2943" width="53.141" height="1.707" transform="translate(219.049 152.024)" fill="#3f3d56"/>
  <rect id="Rectangle_2944" data-name="Rectangle 2944" width="53.141" height="1.707" transform="translate(219.049 147.755)" fill="#3f3d56"/>
</svg>
